HIERARCHY
ROOT Hips
{
	OFFSET -14.64140 90.27770 -84.91600
	CHANNELS 6 Xposition Yposition Zposition Zrotation Xrotation Yrotation
	JOINT Spine
	{
		OFFSET 0.00000 13.20850 -1.60436
		CHANNELS 3 Zrotation Xrotation Yrotation
		JOINT Spine1
		{
			OFFSET 0.00000 8.61716 0.00000
			CHANNELS 3 Zrotation Xrotation Yrotation
			JOINT Spine2
			{
				OFFSET 0.00000 8.61717 0.00000
				CHANNELS 3 Zrotation Xrotation Yrotation
				JOINT Spine3
				{
					OFFSET 0.00000 8.61717 0.00000
					CHANNELS 3 Zrotation Xrotation Yrotation
					JOINT Neck
					{
						OFFSET 0.00000 11.07920 1.10792
						CHANNELS 3 Zrotation Xrotation Yrotation
						JOINT Neck1
						{
							OFFSET 0.00000 7.08032 0.00000
							CHANNELS 3 Zrotation Xrotation Yrotation
							JOINT Head
							{
								OFFSET 0.00000 7.08031 0.00000
								CHANNELS 3 Zrotation Xrotation Yrotation
								End site
								{
									OFFSET 0.00000 0.00000 0.00000
								}
							}
						}
					}
					JOINT RightShoulder
					{
						OFFSET -0.01000 7.91373 5.19711
						CHANNELS 3 Zrotation Xrotation Yrotation
						JOINT RightArm
						{
							OFFSET -18.41580 0.00000 0.00000
							CHANNELS 3 Zrotation Xrotation Yrotation
							JOINT RightForeArm
							{
								OFFSET -29.11090 0.00000 0.00000
								CHANNELS 3 Zrotation Xrotation Yrotation
								JOINT RightHand
								{
									OFFSET -24.65040 0.00000 0.00000
									CHANNELS 3 Zrotation Xrotation Yrotation
									JOINT RightHandThumb1
									{
										OFFSET -5.35114 -0.85590 3.97906
										CHANNELS 3 Zrotation Xrotation Yrotation
										JOINT RightHandThumb2
										{
											OFFSET -4.52789 0.00000 0.00000
											CHANNELS 3 Zrotation Xrotation Yrotation
											JOINT RightHandThumb3
											{
												OFFSET -2.46976 0.00000 0.00000
												CHANNELS 3 Zrotation Xrotation Yrotation
												End site
												{
													OFFSET 0.00000 0.00000 0.00000
												}
											}
										}
									}
									JOINT RightHandIndex1
									{
										OFFSET -14.26970 0.00000 2.88139
										CHANNELS 3 Zrotation Xrotation Yrotation
										JOINT RightHandIndex2
										{
											OFFSET -5.48836 0.00000 0.00000
											CHANNELS 3 Zrotation Xrotation Yrotation
											JOINT RightHandIndex3
											{
												OFFSET -3.01859 0.00000 0.00000
												CHANNELS 3 Zrotation Xrotation Yrotation
												End site
												{
													OFFSET 0.00000 0.00000 0.00000
												}
											}
										}
									}
									JOINT RightHandMiddle1
									{
										OFFSET -14.26970 0.00000 -0.09147
										CHANNELS 3 Zrotation Xrotation Yrotation
										JOINT RightHandMiddle2
										{
											OFFSET -6.17441 0.00000 0.00000
											CHANNELS 3 Zrotation Xrotation Yrotation
											JOINT RightHandMiddle3
											{
												OFFSET -3.56743 0.00000 0.00000
												CHANNELS 3 Zrotation Xrotation Yrotation
												End site
												{
													OFFSET 0.00000 0.00000 0.00000
												}
											}
										}
									}
									JOINT RightHandRing1
									{
										OFFSET -12.69180 0.00000 -3.06433
										CHANNELS 3 Zrotation Xrotation Yrotation
										JOINT RightHandRing2
										{
											OFFSET -5.62556 0.00000 0.00000
											CHANNELS 3 Zrotation Xrotation Yrotation
											JOINT RightHandRing3
											{
												OFFSET -3.56744 0.00000 0.00000
												CHANNELS 3 Zrotation Xrotation Yrotation
												End site
												{
													OFFSET 0.00000 0.00000 0.00000
												}
											}
										}
									}
									JOINT RightHandPinky1
									{
										OFFSET -11.11390 0.00000 -6.03719
										CHANNELS 3 Zrotation Xrotation Yrotation
										JOINT RightHandPinky2
										{
											OFFSET -4.52789 0.00000 0.00000
											CHANNELS 3 Zrotation Xrotation Yrotation
											JOINT RightHandPinky3
											{
												OFFSET -2.46976 0.00000 0.00000
												CHANNELS 3 Zrotation Xrotation Yrotation
												End site
												{
													OFFSET 0.00000 0.00000 0.00000
												}
											}
										}
									}
								}
							}
						}
					}
					JOINT LeftShoulder
					{
						OFFSET 0.01000 7.91373 5.19711
						CHANNELS 3 Zrotation Xrotation Yrotation
						JOINT LeftArm
						{
							OFFSET 18.41580 0.00000 0.00000
							CHANNELS 3 Zrotation Xrotation Yrotation
							JOINT LeftForeArm
							{
								OFFSET 29.11090 0.00000 0.00000
								CHANNELS 3 Zrotation Xrotation Yrotation
								JOINT LeftHand
								{
									OFFSET 24.65040 0.00000 0.00000
									CHANNELS 3 Zrotation Xrotation Yrotation
									JOINT LeftHandThumb1
									{
										OFFSET 5.35114 -0.85590 3.97906
										CHANNELS 3 Zrotation Xrotation Yrotation
										JOINT LeftHandThumb2
										{
											OFFSET 4.52789 0.00000 0.00000
											CHANNELS 3 Zrotation Xrotation Yrotation
											JOINT LeftHandThumb3
											{
												OFFSET 2.46977 0.00000 0.00000
												CHANNELS 3 Zrotation Xrotation Yrotation
												End site
												{
													OFFSET 0.00000 0.00000 0.00000
												}
											}
										}
									}
									JOINT LeftHandIndex1
									{
										OFFSET 14.26970 0.00000 2.88139
										CHANNELS 3 Zrotation Xrotation Yrotation
										JOINT LeftHandIndex2
										{
											OFFSET 5.48836 0.00000 0.00000
											CHANNELS 3 Zrotation Xrotation Yrotation
											JOINT LeftHandIndex3
											{
												OFFSET 3.01859 0.00000 0.00000
												CHANNELS 3 Zrotation Xrotation Yrotation
												End site
												{
													OFFSET 0.00000 0.00000 0.00000
												}
											}
										}
									}
									JOINT LeftHandMiddle1
									{
										OFFSET 14.26970 0.00000 -0.09147
										CHANNELS 3 Zrotation Xrotation Yrotation
										JOINT LeftHandMiddle2
										{
											OFFSET 6.17440 0.00000 0.00000
											CHANNELS 3 Zrotation Xrotation Yrotation
											JOINT LeftHandMiddle3
											{
												OFFSET 3.56744 0.00000 0.00000
												CHANNELS 3 Zrotation Xrotation Yrotation
												End site
												{
													OFFSET 0.00000 0.00000 0.00000
												}
											}
										}
									}
									JOINT LeftHandRing1
									{
										OFFSET 12.69180 0.00000 -3.06433
										CHANNELS 3 Zrotation Xrotation Yrotation
										JOINT LeftHandRing2
										{
											OFFSET 5.62556 0.00000 0.00000
											CHANNELS 3 Zrotation Xrotation Yrotation
											JOINT LeftHandRing3
											{
												OFFSET 3.56744 0.00000 0.00000
												CHANNELS 3 Zrotation Xrotation Yrotation
												End site
												{
													OFFSET 0.00000 0.00000 0.00000
												}
											}
										}
									}
									JOINT LeftHandPinky1
									{
										OFFSET 11.11390 0.00000 -6.03719
										CHANNELS 3 Zrotation Xrotation Yrotation
										JOINT LeftHandPinky2
										{
											OFFSET 4.52789 0.00000 0.00000
											CHANNELS 3 Zrotation Xrotation Yrotation
											JOINT LeftHandPinky3
											{
												OFFSET 2.46976 0.00000 0.00000
												CHANNELS 3 Zrotation Xrotation Yrotation
												End site
												{
													OFFSET 0.00000 0.00000 0.00000
												}
											}
										}
									}
								}
							}
						}
					}
					JOINT pCube4
					{
						OFFSET 0.00000 10.91090 1.10792
						CHANNELS 3 Zrotation Xrotation Yrotation
						End site
						{
							OFFSET 0.00000 0.00000 0.00000
						}
					}
				}
			}
		}
	}
	JOINT RightUpLeg
	{
		OFFSET -9.98441 0.00000 0.00000
		CHANNELS 3 Zrotation Xrotation Yrotation
		JOINT RightLeg
		{
			OFFSET 0.00000 -42.11790 0.00000
			CHANNELS 3 Zrotation Xrotation Yrotation
			JOINT RightFoot
			{
				OFFSET 0.00000 -45.00020 -0.00001
				CHANNELS 3 Zrotation Xrotation Yrotation
				JOINT RightForeFoot
				{
					OFFSET 0.00000 -3.74820 0.00000
					CHANNELS 3 Zrotation Xrotation Yrotation
					JOINT RightToeBase
					{
						OFFSET 0.00000 0.06325 14.43120
						CHANNELS 3 Zrotation Xrotation Yrotation
						End site
						{
							OFFSET 0.00000 0.00000 0.00000
						}
					}
				}
			}
		}
	}
	JOINT LeftUpLeg
	{
		OFFSET 9.98441 0.00000 0.00000
		CHANNELS 3 Zrotation Xrotation Yrotation
		JOINT LeftLeg
		{
			OFFSET 0.00000 -42.11800 0.00000
			CHANNELS 3 Zrotation Xrotation Yrotation
			JOINT LeftFoot
			{
				OFFSET 0.00000 -45.00070 0.00000
				CHANNELS 3 Zrotation Xrotation Yrotation
				JOINT LeftForeFoot
				{
					OFFSET 0.00000 -3.74824 0.00000
					CHANNELS 3 Zrotation Xrotation Yrotation
					JOINT LeftToeBase
					{
						OFFSET 0.00000 0.06325 14.43110
						CHANNELS 3 Zrotation Xrotation Yrotation
						End site
						{
							OFFSET 0.00000 0.00000 0.00000
						}
					}
				}
			}
		}
	}
}
MOTION
Frames: 4
Frame Time: 0.050000
0.01690390359356531 -0.011278376328380864 -0.007713435870800045 -0.023428831491173717 -0.028634810493799685 0.026361822755654574 -2.0614255700331885 2.8319569731734306 -0.8487592265528792 -0.9488963730391732 3.879472675283634 0.3304344401205315 -1.0033651268219888 -1.4026153651053186 -1.3523012103740257 -0.39139808630335665 0.4719318005332584 -0.7937655915349865 -1.16072160764762 11.684319773173675 2.5498424925753205 -0.007513767106952451 -2.0603418600592986 4.812546337801952 -0.46132236714773855 -18.703639606163744 0.38143268758280807 -3.4207863884996796 1.43582764091167 -14.386976363558693 73.29796961682682 21.70227700032536 0.3688084284154019 5.170219931969586 5.9372467445665436 53.21841228247435 20.35761953170869 -0.07480822863906524 -4.4027081337552385 4.565435479357876 -0.12878359151386137 -1.6254703297730342 0.025464000722364148 0.04579355730289788 -56.23655794684446 0.009888955674990143 0.043536537544962284 -56.2324446461043 -38.7744361166616 -7.699533912276895e-05 0.01926412852986653 -0.015322303968249738 0.018846001127352307 -0.011781661870287324 5.698019633914923e-05 0.01643716368814008 0.01918061011517805 -36.65196592561914 0.015575159291089054 -0.047795847276639485 0.019845076228788196 -0.015637154942945777 0.03867896676563598 0.049564704213338764 0.0032750229048459393 -0.041019835192890694 -19.776264184949476 0.017859801990103542 0.013596416268629289 0.019691666946370073 -0.02148179375316926 -0.027933788432696945 -0.0022211084485673958 0.034950022342798204 -0.01849829669864708 24.065916591467634 -0.008273493562997376 -0.040272749517196504 28.837876800175085 -0.007271112760375781 -0.021012401588141046 28.849273639189473 0.018461724556343307 -0.00628787974560661 6.6571475925011745 1.5708046303629266 12.691155881849461 -73.14403576917549 26.01741789383779 -10.909415921968293 -40.519299859413934 2.5468253391711535 -78.60541310129497 -11.989769747940349 -1.8320012048248029 1.7437114650442744 -0.4256693201539016 0.10125431394324819 -8.160595210299576 -0.0019078531693641507 0.03599726373744446 44.59632442121782 -0.020013580184888368 -0.01631075427202028 44.57248120549492 12.465582984185154 0.01953146306008224 0.01053592796039676 -0.00279947890190128 -0.03788827835320253 -0.002780383652229879 -0.028360911396689954 -0.031982648477563394 -0.02305481290680808 11.09029952064582 0.03139561945102261 4.8250513102035605e-05 0.033429296306021476 -0.03286127570923613 0.012843625692416417 0.0061991021953475695 -0.02175236719873665 0.017542330592021257 4.775575675508548 0.024669652289538248 0.012995085542545729 0.007156687984193653 -0.003741858854649933 0.02590243444723274 -0.014537170392134159 -0.031721978827649065 0.025866165991070948 -5.556688385545397 -0.0075537363800808315 -0.04862495902687691 -6.700337993676766 0.011456657444930475 -0.03661838716318355 -6.763433529644794 -0.009829640613164839 -0.026447310157753312 0.02341641921241444 -0.016250380064833356 0.028871687135119513 8.010792823637377 3.4564198442954965 -19.259199117894035 -0.03388586191597902 10.433551342868894 0.013246942189295568 -5.616809442949563 -15.694181338512676 3.1449457854864074 -0.02799302152936268 0.019156261016280964 0.017140372495234594 -0.003999382088093072 4.734882381735127 -0.022704578007457524 12.472294213492715 -8.238604885580974 6.841981465972122 -0.008387011348622738 46.382974133511446 0.01222664887904458 -4.339638038041244 -14.74895612564794 -3.8625761108687224 -0.04998616742692692 -0.005993716496669824 0.0278493596846352 -0.003782187558962448 -10.717961424877497 -0.012163922868659749 
-0.007006114944457429 0.015280512167213649 -0.025523591303963644 -0.003796643494813757 0.008305308678341913 0.02116164466678705 -2.220073765573335 2.636507377272065 -0.873354314641301 -0.9682632274621461 3.8209584410662756 0.3459617563181697 -1.0212712160544786 -1.4832316455520362 -1.4278568310942459 -0.45259162299866484 0.4546406735585421 -0.867916251837984 -1.1990743461413942 11.68899919178325 2.7168633038587053 -0.011350657631355314 -1.9202669953750588 5.391357613697521 -0.5644971660329747 -18.471440661259045 0.47103753912083945 -3.1636895157538887 1.3757031724459214 -14.390090617073552 73.47595349530629 22.406222880011665 -0.28621686047571193 6.47997973816459 6.569894540526627 52.47898142729142 21.220491680246692 -0.10989935975733009 -4.54409137381056 4.529906502162406 -0.11454272978713002 -1.5938825028869978 0.009344805990565641 -0.028322705503710823 -56.19632274650529 -0.0003516982737572675 0.019906451104856244 -56.252211280986536 -38.754662034518795 -0.006852250537013149 -0.022056582740432006 -0.02415307912266706 0.0012941525876974168 -0.02211670952873942 0.010701560511415012 0.0008865778475410326 -0.04407301987709563 -36.723924946404665 0.044583888902861975 -0.034932078912207315 -0.04648861886620568 0.003994848216595111 0.012462561673879068 -0.017471293350376046 0.00195796073192727 0.00029358135030596485 -19.768246420398157 0.025080691704621152 0.00025113566908676206 -0.03652491983648051 0.011572495347302855 -0.030687224989974945 -0.028770196097024598 -0.0147365083893476 0.016886484533857424 24.066221079273173 -0.019327636008168187 -0.03943017645317893 28.872899558357798 0.029380420718703084 0.024111697296097318 28.845582252670045 -0.03495715401449639 0.022471630646994308 6.6586443037648735 1.5534797404790515 12.693782151100432 -73.22880625037514 25.755139120957587 -10.993225349939452 -45.057455009300426 2.898553202389178 -82.30737593211842 -12.275815460233035 -2.0244570449458945 1.7483017557623732 -0.4485329002614302 0.05328923142608082 -8.119873374037859 0.04003651670178602 0.006626744660465765 44.522891395238545 0.02197237499095969 0.04968817317451348 44.56925837715853 12.465453725464046 0.026336376964828465 -0.00786182754033868 -0.024635608054183987 0.021724165117625007 -0.001640165770945897 -0.022948764158070133 0.014569406180047158 0.0358664195454901 11.08678583101849 -0.04336168640848468 -0.03606091404353459 -0.029369412720655148 -0.028134617542405333 0.0008704130016438088 0.010444487962772104 0.04464303079896147 -0.03273996209328866 4.758022359022179 -0.0015227607023696856 -0.012497166358873357 -0.007159567465578806 -0.03479475755488681 -0.011793408572987078 0.01580860638505166 0.0037634735075697035 0.031546900175306945 -5.566475325227238 0.025372797965764887 0.01206615651281003 -6.744623634068506 0.022135871247817757 0.010783019811761376 -6.754475601065566 0.004867815285587586 0.035097375662700665 0.04191321282085014 0.028502047593472066 -0.013276034851293599 8.057442215942753 3.5004450021961384 -19.251454588932614 0.016101640088754702 10.402555660587339 0.0033688043951465886 -5.640297298592269 -15.644218517124676 3.1809062253950855 0.01764316668997351 0.006347853121365856 0.019095188062594578 0.022216573617745802 4.736222329868407 -0.04252663333183372 12.477886402650217 -8.246660708869054 6.87111032888305 -0.03529664504500882 46.33080513895095 0.029236156395738802 -4.327956681054523 -14.720091124290896 -3.8321103010049575 -0.021879553488257566 -0.02674024482032397 0.03157125397660998 0.033747420837562936 -10.732679519325597 0.0029856512791997655 
-0.03378900266028994 0.0051144534302692965 0.02890708238274227 0.04352932863070017 0.03023585483771801 -0.04808271491508162 -2.401170493911064 2.5318416500099685 -0.8632255909251282 -0.9597155847212137 3.7998473678173994 0.3362480987610873 -1.023649574006944 -1.518723481615388 -1.566363007355336 -0.4954770832391595 0.4400608156134647 -0.8850977225060593 -1.1959618601418147 11.614204720848418 2.975752814103322 -0.03678878368190353 -1.7700264574478446 5.797492658623342 -0.5981981126655863 -18.115144909778085 0.4432107561016039 -2.943822339724282 1.3350074982655258 -14.250320810425627 73.36615422361231 22.16806128342202 -0.7311737495721707 7.376666013162315 7.081692429007843 51.84123051750161 22.096449126268872 -0.09638479931660479 -4.588545249659495 4.512528931843434 -0.14170571819198108 -1.5721289467173463 0.0031491633402168243 0.01249617842846644 -56.18426074300064 -0.017570803239561086 -0.033544734233092004 -56.213084751232934 -38.77614376850197 0.0179465814500087 0.02650744041928345 0.004550268770251141 0.012112174574831826 -0.04722645450571317 0.0002853688385453637 0.034670705824500304 -0.02920836563051679 -36.72873175234314 0.024447979153726387 0.03118532955645479 0.03536940392050255 -0.046543160105719725 -0.0041117215945788085 0.006053257814024208 0.021573224661032616 0.02420047786286652 -19.73813362921165 0.00024618724033558355 -0.025472964771594147 0.011196964376921572 0.029150498519206435 -0.034089974176544115 -0.014343136726827455 0.021615120553796278 0.028225406430072215 24.06502348272374 0.027235222241806453 0.00251482401269621 28.9105653577515 0.007875746390079711 -0.03300256743238717 28.820644206012858 -0.006654677035067525 -0.022092466292771406 6.6006846722486205 1.5118932267806164 12.627585837234527 -72.93101675834764 25.320727484362592 -11.073230340592367 -48.63859832521647 2.8179215496384806 -85.23020124940089 -12.51335271196669 -2.0789055788912547 1.6063272348735351 -0.49082742890830766 0.06128643555578797 -8.117572114658042 0.008132721277918427 0.031131863297288308 44.56678649310582 -0.032496195882601144 0.01938009928861202 44.52734714324733 12.488635951848327 -0.01593115437301157 0.04292366465722402 0.015084451413475938 -0.031240003397950463 0.03430969787183159 0.026022628015582222 -0.018416301699268604 -0.006822814798503522 11.143398227608433 -0.0131409842930782 0.003309325034783557 0.042835601276176326 0.00017701093480737784 0.015603191936649306 -0.011010345733828614 0.017936081667318783 -0.0077544320924942765 4.782788794821594 -0.01481722807821179 -0.009415076681340255 0.029493030851525458 0.00929186749352587 -0.041860390725489305 -0.04461873030586408 0.015757616100828067 -0.018261289924531146 -5.565607404089412 -0.04596431768472138 -0.01759686611227438 -6.706745678176322 -0.03264649786485904 0.032039787362568385 -6.758259111408166 -0.038197226851123825 0.010889002058012333 0.027454037550613864 -0.011015687539444107 -0.03506184534747942 8.013494000588702 3.482987591412619 -19.264160632179433 -0.019177649305686217 10.345894532166731 0.044755892898548796 -5.648060235328049 -15.623874401404862 3.1898682816195763 0.027496868952284738 -0.03415388235881301 -0.006564477877384557 0.006174153306423153 4.651114603627524 0.008138870904628066 12.495061001450896 -8.219095979082804 6.870972349053612 -0.011664125207591042 46.36748646730942 0.04073731650046863 -4.305444795941931 -14.76523889742649 -3.7991090895200808 0.03402952622856221 -0.03796170352483187 -0.008289311810920495 -0.03941624540117591 -10.73304836885546 0.020544854249178 
0.023872747461094065 0.02898606722178228 -0.03291575236566504 -0.008707267387159113 -0.03897623765834492 -0.043080112174380264 -2.5443620458686875 2.402550261223956 -0.831899916433495 -1.0094257621908644 3.7540000950304253 0.34132783368300235 -0.9998560615651098 -1.5569709323244765 -1.6509231617671314 -0.49263923170240215 0.45849150111360953 -0.821946105598665 -1.243304261249813 11.65243007952182 3.1000098409524686 0.007200228221868962 -1.6689944181036689 6.100160416614693 -0.6387153104590132 -17.772694767523493 0.491803811609089 -2.717777506605068 1.300640066985888 -14.243504391096927 73.05778041902063 22.00383102356921 -1.0306791812035376 7.763497464536677 7.175910561120269 51.3566258067961 22.81430204480357 -0.03525917563446167 -4.646141237682697 4.537737479798229 -0.10372220074441897 -1.6393684248206073 -0.02361638515413112 0.029516133048993528 -56.23697750751347 0.02661290008899442 0.002254394833634246 -56.231959855624055 -38.756773152509304 -0.02768781307374404 0.022366822151432025 -0.004832775294830073 0.0317666726685275 0.022290784630631458 -0.0009707743149288661 -0.041239788813012844 0.03044446230583068 -36.69695900728056 -0.03228164102637697 -0.03422597680429304 0.03843140607463177 0.010599607242375029 -0.040356411556059145 -0.01518418452313575 0.031755344254208985 -0.028892533571757015 -19.735179144240576 0.009670039307329237 0.0071120003192490545 0.020720379969858524 0.0057963488760758705 -0.021877158022159716 -0.009858040754109693 0.02611386873886655 0.04923209753014907 24.073059718391146 -0.03868839966310271 0.039741955811595835 28.899077032593425 0.005461553360249768 0.011330957555906882 28.871493309291495 0.010450923050053513 -0.008470930220303437 6.464754146005916 1.5188560447465795 12.655037967743079 -72.64835686812917 25.072038990566046 -11.096941455168501 -50.357288506391015 2.512520808810749 -86.49363904579405 -12.475520618262639 -2.0470429290519303 1.4237823276379862 -0.4951807790827397 0.10676020096042263 -8.137942264264177 0.021220211302158582 -0.00011350090848746984 44.52370910638594 -0.0452333321003063 0.020437851301413176 44.52240625512801 12.469320850099216 0.03329578958449862 0.026010070051654118 -0.0026581478818348487 -0.02873662664668465 0.035098811775725366 -0.009028916287922774 -0.004780865824097633 0.007698186281512562 11.08315859772927 0.0002593833824684201 0.003780502118497745 -0.03321526914315275 0.0386113933101175 0.045553987142636365 -0.004154519836846161 -0.024825506671620885 0.02698445886744757 4.731019011314746 0.03259396530152673 0.017756158769780355 0.04599855037420061 -0.034127296871419154 0.03805140060511992 0.02233499200131914 -0.017692947365566924 0.046852931722646055 -5.575308988898749 0.001967810341822673 0.03825931444158487 -6.70099786833175 0.0009357414273554774 -0.006901243882808482 -6.697998300846277 0.008301034306191285 0.03351466278369665 -0.0029142076765091168 -0.04451619635501437 0.018637090196407892 8.07581682858776 3.4821449078702416 -19.22581960465339 0.037412207476692355 10.357397838369497 -0.0201859899933382 -5.660472704960729 -15.691889270575105 3.191231547673509 -0.04657228626987369 -0.01843221563471792 0.03908697940302166 -0.013534708451332738 4.689253869129101 -0.04683549563603135 12.437346514843235 -8.203111226931775 6.90198735881125 -0.049782005525931025 46.346563427788304 0.044523482303893094 -4.365595955961102 -14.724291829882732 -3.859835656576239 0.0169682448936932 0.011213824498737937 0.0216718732182661 -0.021303398852523976 -10.770967660408617 -0.01922906694961489 
